<svg width="1280" height="800" viewBox="0 0 1280 800" fill="none" xmlns="http://www.w3.org/2000/svg">
<g clip-path="url(#clip0_3182_620)">
<rect width="1280" height="800" fill="#00D2FF"/>
<path d="M1362.22 59.38H1119.71V182.59H1362.22V59.38Z" fill="#FFEEA9" stroke="black" stroke-linecap="round" stroke-linejoin="round"/>
<path d="M1119.71 76.04H1362.22" stroke="black" stroke-linecap="round" stroke-linejoin="round"/>
<path d="M1119.71 165.93H1362.22" stroke="black" stroke-linecap="round" stroke-linejoin="round"/>
<path d="M1136.56 59.38V182.59" stroke="black" stroke-linecap="round" stroke-linejoin="round"/>
<path d="M1241.45 133.21C1247.54 133.21 1252.47 128.276 1252.47 122.19C1252.47 116.104 1247.54 111.17 1241.45 111.17C1235.36 111.17 1230.43 116.104 1230.43 122.19C1230.43 128.276 1235.36 133.21 1241.45 133.21Z" fill="black" stroke="black" stroke-linecap="round" stroke-linejoin="round"/>
<path d="M1245.59 133.21C1251.68 133.21 1256.61 128.276 1256.61 122.19C1256.61 116.104 1251.68 111.17 1245.59 111.17C1239.5 111.17 1234.57 116.104 1234.57 122.19C1234.57 128.276 1239.5 133.21 1245.59 133.21Z" fill="#FF9F10" stroke="black" stroke-linecap="round" stroke-linejoin="round"/>
<path d="M1362.22 211.22H1119.71V334.43H1362.22V211.22Z" fill="#FFEEA9" stroke="black" stroke-linecap="round" stroke-linejoin="round"/>
<path d="M1362.22 211.22H1119.71V334.43H1362.22V211.22Z" fill="#FFEEA9" stroke="black" stroke-linecap="round" stroke-linejoin="round"/>
<path d="M1119.71 227.88H1362.22" stroke="black" stroke-linecap="round" stroke-linejoin="round"/>
<path d="M1119.71 317.77H1362.22" stroke="black" stroke-linecap="round" stroke-linejoin="round"/>
<path d="M1136.56 211.22V334.43" stroke="black" stroke-linecap="round" stroke-linejoin="round"/>
<path d="M1241.45 285.06C1247.54 285.06 1252.47 280.126 1252.47 274.04C1252.47 267.954 1247.54 263.02 1241.45 263.02C1235.36 263.02 1230.43 267.954 1230.43 274.04C1230.43 280.126 1235.36 285.06 1241.45 285.06Z" fill="black" stroke="black" stroke-linecap="round" stroke-linejoin="round"/>
<path d="M1245.59 285.06C1251.68 285.06 1256.61 280.126 1256.61 274.04C1256.61 267.954 1251.68 263.02 1245.59 263.02C1239.5 263.02 1234.57 267.954 1234.57 274.04C1234.57 280.126 1239.5 285.06 1245.59 285.06Z" fill="#FF9F10" stroke="black" stroke-linecap="round" stroke-linejoin="round"/>
<path d="M795.35 211.22H552.84V334.43H795.35V211.22Z" fill="#FFEEA9" stroke="black" stroke-linecap="round" stroke-linejoin="round"/>
<path d="M795.35 211.22H552.84V334.43H795.35V211.22Z" fill="#FFEEA9" stroke="black" stroke-linecap="round" stroke-linejoin="round"/>
<path d="M552.84 227.88H795.35" stroke="black" stroke-linecap="round" stroke-linejoin="round"/>
<path d="M552.84 317.77H795.35" stroke="black" stroke-linecap="round" stroke-linejoin="round"/>
<path d="M778.5 211.22V334.43" stroke="black" stroke-linecap="round" stroke-linejoin="round"/>
<path d="M569.69 211.22V334.43" stroke="black" stroke-linecap="round" stroke-linejoin="round"/>
<path d="M674.58 285.06C680.666 285.06 685.6 280.126 685.6 274.04C685.6 267.954 680.666 263.02 674.58 263.02C668.494 263.02 663.56 267.954 663.56 274.04C663.56 280.126 668.494 285.06 674.58 285.06Z" fill="black" stroke="black" stroke-linecap="round" stroke-linejoin="round"/>
<path d="M678.72 285.06C684.806 285.06 689.74 280.126 689.74 274.04C689.74 267.954 684.806 263.02 678.72 263.02C672.634 263.02 667.7 267.954 667.7 274.04C667.7 280.126 672.634 285.06 678.72 285.06Z" fill="white" stroke="black" stroke-linecap="round" stroke-linejoin="round"/>
<path d="M1362.22 363.06H1119.71V486.27H1362.22V363.06Z" fill="#FFEEA9" stroke="black" stroke-linecap="round" stroke-linejoin="round"/>
<path d="M1119.71 379.72H1362.22" stroke="black" stroke-linecap="round" stroke-linejoin="round"/>
<path d="M1119.71 469.62H1362.22" stroke="black" stroke-linecap="round" stroke-linejoin="round"/>
<path d="M1136.56 363.06V486.28" stroke="black" stroke-linecap="round" stroke-linejoin="round"/>
<path d="M1241.45 436.9C1247.54 436.9 1252.47 431.966 1252.47 425.88C1252.47 419.794 1247.54 414.86 1241.45 414.86C1235.36 414.86 1230.43 419.794 1230.43 425.88C1230.43 431.966 1235.36 436.9 1241.45 436.9Z" fill="black" stroke="black" stroke-linecap="round" stroke-linejoin="round"/>
<path d="M1245.59 436.9C1251.68 436.9 1256.61 431.966 1256.61 425.88C1256.61 419.794 1251.68 414.86 1245.59 414.86C1239.5 414.86 1234.57 419.794 1234.57 425.88C1234.57 431.966 1239.5 436.9 1245.59 436.9Z" fill="#FF9F10" stroke="black" stroke-linecap="round" stroke-linejoin="round"/>
<path d="M1078.78 666.75H836.27V789.96H1078.78V666.75Z" fill="#FFEEA9" stroke="black" stroke-linecap="round" stroke-linejoin="round"/>
<path d="M836.27 683.41H1078.78" stroke="black" stroke-linecap="round" stroke-linejoin="round"/>
<path d="M836.27 773.3H1078.78" stroke="black" stroke-linecap="round" stroke-linejoin="round"/>
<path d="M1061.93 666.75V789.96" stroke="black" stroke-linecap="round" stroke-linejoin="round"/>
<path d="M853.119 666.75V789.96" stroke="black" stroke-linecap="round" stroke-linejoin="round"/>
<path d="M958.02 740.59C964.106 740.59 969.04 735.656 969.04 729.57C969.04 723.484 964.106 718.55 958.02 718.55C951.934 718.55 947 723.484 947 729.57C947 735.656 951.934 740.59 958.02 740.59Z" fill="black" stroke="black" stroke-linecap="round" stroke-linejoin="round"/>
<path d="M962.15 740.59C968.236 740.59 973.17 735.656 973.17 729.57C973.17 723.484 968.236 718.55 962.15 718.55C956.064 718.55 951.13 723.484 951.13 729.57C951.13 735.656 956.064 740.59 962.15 740.59Z" fill="white" stroke="black" stroke-linecap="round" stroke-linejoin="round"/>
<path d="M795.35 515H552.84V638.21H795.35V515Z" fill="#FFEEA9" stroke="black" stroke-linecap="round" stroke-linejoin="round"/>
<path d="M552.84 531.66H795.35" stroke="black" stroke-linecap="round" stroke-linejoin="round"/>
<path d="M552.84 621.55H795.35" stroke="black" stroke-linecap="round" stroke-linejoin="round"/>
<path d="M778.5 515V638.21" stroke="black" stroke-linecap="round" stroke-linejoin="round"/>
<path d="M569.69 515V638.21" stroke="black" stroke-linecap="round" stroke-linejoin="round"/>
<path d="M674.58 588.84C680.666 588.84 685.6 583.906 685.6 577.82C685.6 571.734 680.666 566.8 674.58 566.8C668.494 566.8 663.56 571.734 663.56 577.82C663.56 583.906 668.494 588.84 674.58 588.84Z" fill="black" stroke="black" stroke-linecap="round" stroke-linejoin="round"/>
<path d="M678.72 588.84C684.806 588.84 689.74 583.906 689.74 577.82C689.74 571.734 684.806 566.8 678.72 566.8C672.634 566.8 667.7 571.734 667.7 577.82C667.7 583.906 672.634 588.84 678.72 588.84Z" fill="white" stroke="black" stroke-linecap="round" stroke-linejoin="round"/>
<path d="M1078.78 363.06H836.27V486.27H1078.78V363.06Z" fill="#FFEEA9" stroke="black" stroke-linecap="round" stroke-linejoin="round"/>
<path d="M836.27 379.72H1078.78" stroke="black" stroke-linecap="round" stroke-linejoin="round"/>
<path d="M836.27 469.62H1078.78" stroke="black" stroke-linecap="round" stroke-linejoin="round"/>
<path d="M1061.93 363.06V486.28" stroke="black" stroke-linecap="round" stroke-linejoin="round"/>
<path d="M853.119 363.06V486.28" stroke="black" stroke-linecap="round" stroke-linejoin="round"/>
<path d="M958.02 436.9C964.106 436.9 969.04 431.966 969.04 425.88C969.04 419.794 964.106 414.86 958.02 414.86C951.934 414.86 947 419.794 947 425.88C947 431.966 951.934 436.9 958.02 436.9Z" fill="black" stroke="black" stroke-linecap="round" stroke-linejoin="round"/>
<path d="M962.15 436.9C968.236 436.9 973.17 431.966 973.17 425.88C973.17 419.794 968.236 414.86 962.15 414.86C956.064 414.86 951.13 419.794 951.13 425.88C951.13 431.966 956.064 436.9 962.15 436.9Z" fill="white" stroke="black" stroke-linecap="round" stroke-linejoin="round"/>
<path d="M1362.22 514.9H1119.71V638.11H1362.22V514.9Z" fill="#FFEEA9" stroke="black" stroke-linecap="round" stroke-linejoin="round"/>
<path d="M1119.71 531.57H1362.22" stroke="black" stroke-linecap="round" stroke-linejoin="round"/>
<path d="M1119.71 621.46H1362.22" stroke="black" stroke-linecap="round" stroke-linejoin="round"/>
<path d="M1136.56 514.9V638.12" stroke="black" stroke-linecap="round" stroke-linejoin="round"/>
<path d="M1241.45 588.74C1247.54 588.74 1252.47 583.806 1252.47 577.72C1252.47 571.634 1247.54 566.7 1241.45 566.7C1235.36 566.7 1230.43 571.634 1230.43 577.72C1230.43 583.806 1235.36 588.74 1241.45 588.74Z" fill="black" stroke="black" stroke-linecap="round" stroke-linejoin="round"/>
<path d="M1245.59 588.74C1251.68 588.74 1256.61 583.806 1256.61 577.72C1256.61 571.634 1251.68 566.7 1245.59 566.7C1239.5 566.7 1234.57 571.634 1234.57 577.72C1234.57 583.806 1239.5 588.74 1245.59 588.74Z" fill="#FF9F10" stroke="black" stroke-linecap="round" stroke-linejoin="round"/>
<path d="M1362.22 666.75H1119.71V789.96H1362.22V666.75Z" fill="#FFEEA9" stroke="black" stroke-linecap="round" stroke-linejoin="round"/>
<path d="M1119.71 683.41H1362.22" stroke="black" stroke-linecap="round" stroke-linejoin="round"/>
<path d="M1119.71 773.3H1362.22" stroke="black" stroke-linecap="round" stroke-linejoin="round"/>
<path d="M1136.56 666.75V789.96" stroke="black" stroke-linecap="round" stroke-linejoin="round"/>
<path d="M1241.45 740.59C1247.54 740.59 1252.47 735.656 1252.47 729.57C1252.47 723.484 1247.54 718.55 1241.45 718.55C1235.36 718.55 1230.43 723.484 1230.43 729.57C1230.43 735.656 1235.36 740.59 1241.45 740.59Z" fill="black" stroke="black" stroke-linecap="round" stroke-linejoin="round"/>
<path d="M1245.59 740.59C1251.68 740.59 1256.61 735.656 1256.61 729.57C1256.61 723.484 1251.68 718.55 1245.59 718.55C1239.5 718.55 1234.57 723.484 1234.57 729.57C1234.57 735.656 1239.5 740.59 1245.59 740.59Z" fill="#FF9F10" stroke="black" stroke-linecap="round" stroke-linejoin="round"/>
<path d="M1158.32 328.06H915.81V451.27H1158.32V328.06Z" fill="#FFC010" stroke="black" stroke-linecap="round" stroke-linejoin="round"/>
<path d="M1078.78 211.22H836.27L915.81 328.06H1158.32L1078.78 211.22Z" fill="#FFEEA9" stroke="black" stroke-linecap="round" stroke-linejoin="round"/>
<path d="M1139.17 318.58L1072.55 220.7H855.42L922.04 318.58H1139.17Z" fill="#FFC010" stroke="black" stroke-linecap="round" stroke-linejoin="round"/>
<path d="M836.27 334.43L915.81 451.28V328.06L836.27 211.22V334.43Z" fill="#FF9F10" stroke="black" stroke-linecap="round" stroke-linejoin="round"/>
<path d="M915.81 344.72H1158.32" stroke="black" stroke-linecap="round" stroke-linejoin="round"/>
<path d="M915.81 434.61H1158.32" stroke="black" stroke-linecap="round" stroke-linejoin="round"/>
<path d="M1141.47 328.06V451.28" stroke="black" stroke-linecap="round" stroke-linejoin="round"/>
<path d="M932.659 328.06V451.28" stroke="black" stroke-linecap="round" stroke-linejoin="round"/>
<path d="M1037.55 401.9C1043.64 401.9 1048.57 396.966 1048.57 390.88C1048.57 384.794 1043.64 379.86 1037.55 379.86C1031.46 379.86 1026.53 384.794 1026.53 390.88C1026.53 396.966 1031.46 401.9 1037.55 401.9Z" fill="black" stroke="black" stroke-linecap="round" stroke-linejoin="round"/>
<path d="M1041.69 401.9C1047.78 401.9 1052.71 396.966 1052.71 390.88C1052.71 384.794 1047.78 379.86 1041.69 379.86C1035.6 379.86 1030.67 384.794 1030.67 390.88C1030.67 396.966 1035.6 401.9 1041.69 401.9Z" fill="#FFEEA9" stroke="black" stroke-linecap="round" stroke-linejoin="round"/>
<path d="M1072.55 263.02V220.7L1139.17 318.58H1110.88L1072.55 263.02Z" fill="black" stroke="black" stroke-linecap="round" stroke-linejoin="round"/>
<path d="M1072.55 220.7V263.02H884.22L855.42 220.7H1072.55Z" fill="#FF9F10" stroke="black" stroke-linecap="round" stroke-linejoin="round"/>
<path d="M1158.32 631.75H915.81V754.96H1158.32V631.75Z" fill="#FFC010" stroke="black" stroke-linecap="round" stroke-linejoin="round"/>
<path d="M1078.78 514.9H836.27L915.81 631.75H1158.32L1078.78 514.9Z" fill="#FFEEA9" stroke="black" stroke-linecap="round" stroke-linejoin="round"/>
<path d="M1139.17 622.27L1072.55 524.38H855.42L922.04 622.27H1139.17Z" fill="#FFC010" stroke="black" stroke-linecap="round" stroke-linejoin="round"/>
<path d="M836.27 638.12L915.81 754.96V631.75L836.27 514.9V638.12Z" fill="#FF9F10" stroke="black" stroke-linecap="round" stroke-linejoin="round"/>
<path d="M915.81 648.41H1158.32" stroke="black" stroke-linecap="round" stroke-linejoin="round"/>
<path d="M915.81 738.3H1158.32" stroke="black" stroke-linecap="round" stroke-linejoin="round"/>
<path d="M1141.47 631.75V754.96" stroke="black" stroke-linecap="round" stroke-linejoin="round"/>
<path d="M932.659 631.75V754.96" stroke="black" stroke-linecap="round" stroke-linejoin="round"/>
<path d="M1037.55 705.59C1043.64 705.59 1048.57 700.656 1048.57 694.57C1048.57 688.484 1043.64 683.55 1037.55 683.55C1031.46 683.55 1026.53 688.484 1026.53 694.57C1026.53 700.656 1031.46 705.59 1037.55 705.59Z" fill="black" stroke="black" stroke-linecap="round" stroke-linejoin="round"/>
<path d="M1041.69 705.59C1047.78 705.59 1052.71 700.656 1052.71 694.57C1052.71 688.484 1047.78 683.55 1041.69 683.55C1035.6 683.55 1030.67 688.484 1030.67 694.57C1030.67 700.656 1035.6 705.59 1041.69 705.59Z" fill="#FFEEA9" stroke="black" stroke-linecap="round" stroke-linejoin="round"/>
<path d="M1072.55 566.7V524.38L1139.17 622.27H1110.88L1072.55 566.7Z" fill="black" stroke="black" stroke-linecap="round" stroke-linejoin="round"/>
<path d="M1072.55 524.38V566.7H884.22L855.42 524.38H1072.55Z" fill="#FF9F10" stroke="black" stroke-linecap="round" stroke-linejoin="round"/>
<path d="M874.88 783.59H632.37V906.8H874.88V783.59Z" fill="#FFC010" stroke="black" stroke-linecap="round" stroke-linejoin="round"/>
<path d="M795.35 666.75H552.84L632.37 783.59H874.88L795.35 666.75Z" fill="#FFEEA9" stroke="black" stroke-linecap="round" stroke-linejoin="round"/>
<path d="M855.74 774.11L789.11 676.23H571.98L638.61 774.11H855.74Z" fill="#FFC010" stroke="black" stroke-linecap="round" stroke-linejoin="round"/>
<path d="M552.84 789.96L632.37 906.8V783.59L552.84 666.75V789.96Z" fill="#FF9F10" stroke="black" stroke-linecap="round" stroke-linejoin="round"/>
<path d="M858.03 783.59V906.8" stroke="black" stroke-linecap="round" stroke-linejoin="round"/>
<path d="M649.22 783.59V906.8" stroke="black" stroke-linecap="round" stroke-linejoin="round"/>
<path d="M789.109 718.55V676.23L855.739 774.11H827.439L789.109 718.55Z" fill="black" stroke="black" stroke-linecap="round" stroke-linejoin="round"/>
<path d="M789.11 676.23V718.55H600.79L571.98 676.23H789.11Z" fill="#FF9F10" stroke="black" stroke-linecap="round" stroke-linejoin="round"/>
<path d="M1072.55 524.38V566.7H884.22L855.42 524.38H1072.55Z" fill="black" stroke="black" stroke-miterlimit="10"/>
<path d="M874.88 479.9H632.37V603.11H874.88V479.9Z" fill="#FFC010" stroke="black" stroke-linecap="round" stroke-linejoin="round"/>
<path d="M795.35 363.06H552.84L632.37 479.9H874.88L795.35 363.06Z" fill="#FFEEA9" stroke="black" stroke-linecap="round" stroke-linejoin="round"/>
<path d="M855.74 470.42L789.11 372.54H571.98L638.61 470.42H855.74Z" fill="#FFC010" stroke="black" stroke-linecap="round" stroke-linejoin="round"/>
<path d="M552.84 486.28L632.37 603.12V479.9L552.84 363.06V486.28Z" fill="#FF9F10" stroke="black" stroke-linecap="round" stroke-linejoin="round"/>
<path d="M632.37 496.56H874.88" stroke="black" stroke-linecap="round" stroke-linejoin="round"/>
<path d="M632.37 586.46H874.88" stroke="black" stroke-linecap="round" stroke-linejoin="round"/>
<path d="M858.03 479.9V603.12" stroke="black" stroke-linecap="round" stroke-linejoin="round"/>
<path d="M649.22 479.9V603.12" stroke="black" stroke-linecap="round" stroke-linejoin="round"/>
<path d="M754.12 553.74C760.206 553.74 765.14 548.806 765.14 542.72C765.14 536.634 760.206 531.7 754.12 531.7C748.034 531.7 743.1 536.634 743.1 542.72C743.1 548.806 748.034 553.74 754.12 553.74Z" fill="black" stroke="black" stroke-linecap="round" stroke-linejoin="round"/>
<path d="M758.25 553.74C764.336 553.74 769.27 548.806 769.27 542.72C769.27 536.634 764.336 531.7 758.25 531.7C752.164 531.7 747.23 536.634 747.23 542.72C747.23 548.806 752.164 553.74 758.25 553.74Z" fill="#FFEEA9" stroke="black" stroke-linecap="round" stroke-linejoin="round"/>
<path d="M1106.32 99.84H863.81V223.05H1106.32V99.84Z" fill="#FFC010" stroke="black" stroke-linecap="round" stroke-linejoin="round"/>
<path d="M836.27 59.38L863.81 99.84H1106.33L1078.78 59.38H836.27Z" fill="#FFEEA9" stroke="black" stroke-linecap="round" stroke-linejoin="round"/>
<path d="M863.81 116.5H1106.33" stroke="black" stroke-linecap="round" stroke-linejoin="round"/>
<path d="M863.81 206.39H1106.33" stroke="black" stroke-linecap="round" stroke-linejoin="round"/>
<path d="M1089.47 99.84V223.05" stroke="black" stroke-linecap="round" stroke-linejoin="round"/>
<path d="M880.67 99.84V223.05" stroke="black" stroke-linecap="round" stroke-linejoin="round"/>
<path d="M985.559 173.68C991.645 173.68 996.579 168.746 996.579 162.66C996.579 156.574 991.645 151.64 985.559 151.64C979.473 151.64 974.539 156.574 974.539 162.66C974.539 168.746 979.473 173.68 985.559 173.68Z" fill="black" stroke="black" stroke-linecap="round" stroke-linejoin="round"/>
<path d="M989.689 173.68C995.775 173.68 1000.71 168.746 1000.71 162.66C1000.71 156.574 995.775 151.64 989.689 151.64C983.603 151.64 978.669 156.574 978.669 162.66C978.669 168.746 983.603 173.68 989.689 173.68Z" fill="#FFEEA9" stroke="black" stroke-linecap="round" stroke-linejoin="round"/>
<path d="M836.27 59.38V182.59L863.81 223.05V99.84L836.27 59.38Z" fill="#FF9F10" stroke="black" stroke-linecap="round" stroke-linejoin="round"/>
<path d="M848.96 59.38L870.05 90.36H1087.18L1066.09 59.38H848.96Z" fill="black" stroke="black" stroke-linecap="round" stroke-linejoin="round"/>
<path d="M874.88 176.22H632.37V299.43H874.88V176.22Z" fill="#FFC010" stroke="black" stroke-linecap="round" stroke-linejoin="round"/>
<path d="M795.35 59.38H552.84L632.37 176.22H874.88L795.35 59.38Z" fill="#FFEEA9" stroke="black" stroke-linecap="round" stroke-linejoin="round"/>
<path d="M855.74 166.74L789.11 68.86H571.98L638.61 166.74H855.74Z" fill="#FFC010" stroke="black" stroke-linecap="round" stroke-linejoin="round"/>
<path d="M552.84 182.59L632.37 299.43V176.22L552.84 59.38V182.59Z" fill="#FF9F10" stroke="black" stroke-linecap="round" stroke-linejoin="round"/>
<path d="M632.37 192.88H874.88" stroke="black" stroke-linecap="round" stroke-linejoin="round"/>
<path d="M632.37 282.77H874.88" stroke="black" stroke-linecap="round" stroke-linejoin="round"/>
<path d="M858.03 176.22V299.43" stroke="black" stroke-linecap="round" stroke-linejoin="round"/>
<path d="M649.22 176.22V299.43" stroke="black" stroke-linecap="round" stroke-linejoin="round"/>
<path d="M754.12 250.06C760.206 250.06 765.14 245.126 765.14 239.04C765.14 232.954 760.206 228.02 754.12 228.02C748.034 228.02 743.1 232.954 743.1 239.04C743.1 245.126 748.034 250.06 754.12 250.06Z" fill="black" stroke="black" stroke-linecap="round" stroke-linejoin="round"/>
<path d="M758.25 250.06C764.336 250.06 769.27 245.126 769.27 239.04C769.27 232.954 764.336 228.02 758.25 228.02C752.164 228.02 747.23 232.954 747.23 239.04C747.23 245.126 752.164 250.06 758.25 250.06Z" fill="#FFEEA9" stroke="black" stroke-linecap="round" stroke-linejoin="round"/>
<path d="M789.11 68.86V111.17H600.79L571.98 68.86H789.11Z" stroke="black" stroke-linecap="round" stroke-linejoin="round"/>
<path d="M789.11 393.7V372.54H677.65L691.9 393.7H789.11Z" fill="#FF9F10" stroke="black" stroke-linecap="round" stroke-linejoin="round"/>
<path d="M789.11 111.17V68.86L855.74 166.74H827.44L789.11 111.17Z" fill="black" stroke="black" stroke-linecap="round" stroke-linejoin="round"/>
<path d="M664.96 414.86V372.54L731.59 470.42H703.29L664.96 414.86Z" fill="black" stroke="black" stroke-linecap="round" stroke-linejoin="round"/>
<path d="M789.11 372.54V393.7L841.73 470.42H855.74L789.11 372.54Z" fill="black" stroke="black" stroke-linecap="round" stroke-linejoin="round"/>
<path d="M636.22 163.22H784.49C790.55 163.22 795.47 158.3 795.47 152.24V34.8C795.47 28.74 790.55 23.82 784.49 23.82H620.92C609.61 23.82 600.44 32.99 600.44 44.3V110.59L636.22 163.22Z" fill="black" stroke="black" stroke-linecap="round" stroke-linejoin="round"/>
<path d="M638.61 166.74H807.29C807.74 165.54 808 164.24 808 162.88V47.44C808 41.38 803.08 36.46 797.02 36.46H623.95C617.89 36.46 612.97 41.38 612.97 47.44V129.03L638.61 166.74Z" fill="#E3FCF7" stroke="black" stroke-linecap="round" stroke-linejoin="round"/>
<path d="M664.96 372.54H571.98L600.79 414.86H664.96V372.54Z" fill="#FF9F10" stroke="black" stroke-linecap="round" stroke-linejoin="round"/>
<path d="M824.33 445.06V423.9H712.87L727.12 445.06H824.33Z" fill="#FF9F10" stroke="black" stroke-linecap="round" stroke-linejoin="round"/>
<path d="M808 57.01V47.43C808 41.37 803.08 36.45 797.02 36.45H623.95C617.89 36.45 612.97 41.37 612.97 47.43V57.01H808Z" fill="#00684A" stroke="black" stroke-linecap="round" stroke-linejoin="round"/>
<path d="M626.43 51.87C629.269 51.87 631.57 49.5687 631.57 46.73C631.57 43.8912 629.269 41.59 626.43 41.59C623.591 41.59 621.29 43.8912 621.29 46.73C621.29 49.5687 623.591 51.87 626.43 51.87Z" fill="white" stroke="black" stroke-linecap="round" stroke-linejoin="round"/>
<path d="M640.39 51.87C643.229 51.87 645.53 49.5687 645.53 46.73C645.53 43.8912 643.229 41.59 640.39 41.59C637.551 41.59 635.25 43.8912 635.25 46.73C635.25 49.5687 637.551 51.87 640.39 51.87Z" fill="white" stroke="black" stroke-linecap="round" stroke-linejoin="round"/>
<path d="M654.34 51.87C657.179 51.87 659.48 49.5687 659.48 46.73C659.48 43.8912 657.179 41.59 654.34 41.59C651.501 41.59 649.2 43.8912 649.2 46.73C649.2 49.5687 651.501 51.87 654.34 51.87Z" fill="white" stroke="black" stroke-linecap="round" stroke-linejoin="round"/>
<path d="M765.14 594.73H693.13L670.48 586.51V558.47L693.13 550.25H765.14V594.73Z" fill="#00ED64" stroke="black" stroke-linecap="round" stroke-linejoin="round"/>
<path d="M745.9 561.84V584.47" stroke="black" stroke-linecap="round" stroke-linejoin="round"/>
<path d="M743.1 558.28C744.65 558.28 745.9 559.53 745.9 561.08V561.83" stroke="black" stroke-linecap="round" stroke-linejoin="round"/>
<path d="M748.7 558.28C747.15 558.28 745.9 559.53 745.9 561.08" stroke="black" stroke-linecap="round" stroke-linejoin="round"/>
<path d="M743.1 586.7C744.65 586.7 745.9 585.45 745.9 583.9V583.15" stroke="black" stroke-linecap="round" stroke-linejoin="round"/>
<path d="M748.7 586.7C747.15 586.7 745.9 585.45 745.9 583.9" stroke="black" stroke-linecap="round" stroke-linejoin="round"/>
<path d="M722.67 563.65V580.28" stroke="black" stroke-linecap="round" stroke-linejoin="round"/>
<path d="M730.99 571.96H714.36" stroke="black" stroke-linecap="round" stroke-linejoin="round"/>
<path d="M728.55 566.08L716.79 577.85" stroke="black" stroke-linecap="round" stroke-linejoin="round"/>
<path d="M728.55 577.85L716.79 566.08" stroke="black" stroke-linecap="round" stroke-linejoin="round"/>
<path d="M696.36 563.65V580.28" stroke="black" stroke-linecap="round" stroke-linejoin="round"/>
<path d="M704.68 571.96H688.04" stroke="black" stroke-linecap="round" stroke-linejoin="round"/>
<path d="M702.24 566.08L690.48 577.85" stroke="black" stroke-linecap="round" stroke-linejoin="round"/>
<path d="M702.24 577.85L690.48 566.08" stroke="black" stroke-linecap="round" stroke-linejoin="round"/>
<path d="M764.48 52.56L825.02 13.58L848.52 8.22998L863.7 31.82L849.1 50.99L788.56 89.96L764.48 52.56Z" fill="#00ED64" stroke="black" stroke-linecap="round" stroke-linejoin="round"/>
<path d="M1039.81 200.88L1032.34 129.27L1038.17 105.89L1066.06 102.98L1076.59 124.66L1084.05 196.27L1039.81 200.88Z" fill="#00ED64" stroke="black" stroke-linecap="round" stroke-linejoin="round"/>
<path d="M1139.98 149.07L1110.76 83.26L1109.08 59.23L1134.71 47.85L1151.42 65.21L1180.63 131.02L1139.98 149.07Z" fill="#00ED64" stroke="black" stroke-linecap="round" stroke-linejoin="round"/>
<path d="M1141.1 107.53C1147.03 107.53 1151.84 102.722 1151.84 96.79C1151.84 90.8585 1147.03 86.05 1141.1 86.05C1135.17 86.05 1130.36 90.8585 1130.36 96.79C1130.36 102.722 1135.17 107.53 1141.1 107.53Z" fill="#E9FF99" stroke="black" stroke-linecap="round" stroke-linejoin="round"/>
<path d="M831.143 48.8725L819.511 30.8026L801.441 42.4345L813.073 60.5043L831.143 48.8725Z" fill="#B1FF05" stroke="black" stroke-linecap="round" stroke-linejoin="round"/>
<path d="M914.82 528.94V512.9H874.88V553.11L888.12 572.55H1075.57V528.94H914.82Z" fill="#00ED64" stroke="black" stroke-linecap="round" stroke-linejoin="round"/>
<path d="M1068.82 161.08L1047.45 163.31L1055.91 140.82L1068.82 161.08Z" fill="#00684A" stroke="black" stroke-linecap="round" stroke-linejoin="round"/>
<path d="M760.66 130.78H713.62V143.18H760.66V130.78Z" fill="#00684A" stroke="black" stroke-linecap="round" stroke-linejoin="round"/>
<path d="M877.81 556.82H935.5V540.77H989.28V562.14L881 561.46L877.81 556.82Z" fill="black" stroke="black" stroke-linecap="round" stroke-linejoin="round"/>
<path d="M648.43 83.48V97.89L682.92 114.13L648.43 130.38V144.78L697.71 121.57V106.7L648.43 83.48Z" fill="#00684A" stroke="black" stroke-linecap="round" stroke-linejoin="round"/>
<path d="M997.29 561.59V545.54H940.91V561.59H880.72L910.4 605.2H1097.85V561.59H997.29Z" fill="#00ED64" stroke="black" stroke-linecap="round" stroke-linejoin="round"/>
<path d="M899.1 588.6H1028.21V572.55H1082V593.92L902.29 593.24L899.1 588.6Z" fill="black" stroke="black" stroke-linecap="round" stroke-linejoin="round"/>
<path d="M1090.12 593.24V577.19H1033.74V593.24H902.29L922.04 622.27H1119.42V593.24H1090.12Z" fill="#00ED64" stroke="black" stroke-linecap="round" stroke-linejoin="round"/>
<path d="M1047.96 590.71C1050.1 590.71 1051.84 588.973 1051.84 586.83C1051.84 584.687 1050.1 582.95 1047.96 582.95C1045.82 582.95 1044.08 584.687 1044.08 586.83C1044.08 588.973 1045.82 590.71 1047.96 590.71Z" fill="#B1FF05" stroke="black" stroke-linecap="round" stroke-linejoin="round"/>
<path d="M1061.76 590.71C1063.9 590.71 1065.64 588.973 1065.64 586.83C1065.64 584.687 1063.9 582.95 1061.76 582.95C1059.62 582.95 1057.88 584.687 1057.88 586.83C1057.88 588.973 1059.62 590.71 1061.76 590.71Z" fill="white" stroke="black" stroke-linecap="round" stroke-linejoin="round"/>
<path d="M1075.56 590.71C1077.7 590.71 1079.44 588.973 1079.44 586.83C1079.44 584.687 1077.7 582.95 1075.56 582.95C1073.42 582.95 1071.68 584.687 1071.68 586.83C1071.68 588.973 1073.42 590.71 1075.56 590.71Z" fill="#B1FF05" stroke="black" stroke-linecap="round" stroke-linejoin="round"/>
<path d="M958.8 552.09H950.16C948.928 552.09 947.93 553.088 947.93 554.32C947.93 555.552 948.928 556.55 950.16 556.55H958.8C960.031 556.55 961.03 555.552 961.03 554.32C961.03 553.088 960.031 552.09 958.8 552.09Z" fill="black" stroke="black" stroke-linecap="round" stroke-linejoin="round"/>
<path d="M988.31 552.09H968.47C967.239 552.09 966.24 553.088 966.24 554.32C966.24 555.552 967.239 556.55 968.47 556.55H988.31C989.542 556.55 990.54 555.552 990.54 554.32C990.54 553.088 989.542 552.09 988.31 552.09Z" fill="#B1FF05" stroke="black" stroke-linecap="round" stroke-linejoin="round"/>
<path d="M1075.56 556.82H997.29V561.52H1075.56V556.82Z" fill="black" stroke="black" stroke-linecap="round" stroke-linejoin="round"/>
<path d="M1101.41 318.58L1042.33 231.79H905.29L964.37 318.58H1101.41Z" fill="#F2C5EE" stroke="black" stroke-linecap="round" stroke-linejoin="round"/>
<path d="M1070.24 309.77L1033.2 255.34H947.26L984.31 309.77H1070.24Z" fill="#F9EBFF" stroke="black" stroke-linecap="round" stroke-linejoin="round"/>
<path d="M946.53 170.56C946.53 163.66 947.75 157.19 949.88 151.64H949.82L942.12 162.83L934.45 151.68L926.78 162.83L918.76 151.64L911.06 162.83L903.2 151.64L895.5 162.83L887.68 151.64L879.98 162.83L872.07 151.64C870.28 156.32 869.14 161.64 868.82 167.33L874.87 176.22V195.38C879.35 203.12 885.89 208 893.18 208H970.99C957.48 208 946.52 191.23 946.52 170.55L946.53 170.56Z" fill="white" stroke="black" stroke-linecap="round" stroke-linejoin="round"/>
<path d="M940.69 318.58L905.29 267.1V231.79L964.37 318.58H940.69Z" fill="#B45AF2" stroke="black" stroke-linecap="round" stroke-linejoin="round"/>
<path d="M1033.15 282.55C1038.96 291.08 1032.74 298 1019.27 298C1005.8 298 990.16 291.08 984.36 282.55C978.55 274.02 984.77 267.1 998.24 267.1C1011.71 267.1 1027.35 274.02 1033.15 282.55Z" fill="#F2C5EE" stroke="black" stroke-linecap="round" stroke-linejoin="round"/>
<path d="M934.83 241.39H1032.41" stroke="black" stroke-linecap="round" stroke-linejoin="round"/>
<path d="M1022.39 241.39C1024.52 235.84 1025.74 229.37 1025.74 222.47C1025.74 201.79 1014.79 185.02 1001.27 185.02H923.46C936.97 185.02 947.93 201.79 947.93 222.47C947.93 229.37 946.71 235.84 944.58 241.39H1022.39Z" fill="white" stroke="black" stroke-linecap="round" stroke-linejoin="round"/>
<path d="M918.5 207.96L946.01 207.89C942.3 194.45 933.6 185.02 923.47 185.02C915.72 185.02 908.76 187.58 903.29 201.32C901.09 206.58 897.62 207.98 893.29 208C893.26 208 893.23 208 893.2 208H900.91L918.48 207.96H918.52H918.5Z" fill="black" stroke="black" stroke-linecap="round" stroke-linejoin="round"/>
<path d="M997.29 89.96C985.66 13.68 1078.95 -22.92 1122.24 53.38" stroke="black" stroke-linecap="round" stroke-linejoin="round"/>
<path d="M795.35 363.06H552.84L632.37 479.9H874.88L795.35 363.06ZM789.11 372.54L817.61 414.41H706.15L677.65 372.54H789.11ZM638.61 470.42L571.98 372.54H664.96L731.59 470.42H638.61ZM744.28 470.42L712.61 423.89H824.07L855.74 470.42H744.28Z" fill="#FFEEA9" stroke="black" stroke-linecap="round" stroke-linejoin="round"/>
<path d="M947.26 89.96C958.56 10.79 1047.71 19.45 1051.47 104.46" stroke="black" stroke-linecap="round" stroke-linejoin="round"/>
<path d="M855.74 19.45C894.59 8.23003 932.05 38.82 922.41 90.35" stroke="black" stroke-linecap="round" stroke-linejoin="round"/>
<path d="M618.47 364.72C563.4 328.06 493.95 356.55 473.8 437.11C469.06 458.43 470.81 480.8 479.88 500.67C487.78 517.99 505.24 536.26 528.76 540.56C560.43 547.1 569.58 515.21 550.4 501.16C543.5 496.11 534.55 494.96 526.33 497.3C493.28 506.72 488.04 561.11 525.4 587.26C539.17 596.9 556.29 600.53 572.9 597.99C627.39 589.66 632.08 566.08 670.47 570.51" stroke="black" stroke-linecap="round" stroke-linejoin="round"/>
<path d="M875.15 526.86C882.02 525.69 886 519.94 883.19 518.78C880.38 517.62 875.15 526.86 886.49 526.13" stroke="black" stroke-linecap="round" stroke-linejoin="round"/>
<path d="M886.49 526.13C893.83 525.43 897.731 519.94 894.921 518.78C892.111 517.62 886.88 526.86 898.22 526.13" stroke="black" stroke-linecap="round" stroke-linejoin="round"/>
<path d="M898.221 526.13C905.561 525.43 909.461 519.94 906.651 518.78C903.841 517.62 898.611 526.86 909.951 526.13" stroke="black" stroke-linecap="round" stroke-linejoin="round"/>
<path d="M958.88 218.47C963.46 218.47 963.46 226.47 968.04 226.47C972.62 226.47 972.62 218.47 977.2 218.47C981.78 218.47 981.78 226.47 986.37 226.47C990.96 226.47 990.95 218.47 995.53 218.47C1000.11 218.47 1000.11 226.47 1004.7 226.47C1009.29 226.47 1009.28 218.47 1013.87 218.47" stroke="black" stroke-linecap="round" stroke-linejoin="round"/>
<path d="M954.68 197.69C959.26 197.69 959.26 205.69 963.84 205.69C968.42 205.69 968.42 197.69 973 197.69C977.58 197.69 977.58 205.69 982.17 205.69C986.76 205.69 986.75 197.69 991.33 197.69C995.91 197.69 995.91 205.69 1000.5 205.69C1005.09 205.69 1005.08 197.69 1009.67 197.69" stroke="black" stroke-linecap="round" stroke-linejoin="round"/>
<path d="M669.17 382.78C664.86 365.58 644.29 355.91 623.24 361.2C602.19 366.48 588.62 384.71 592.93 401.91C593.15 402.8 593.43 403.67 593.74 404.52L601.32 415.66C610.22 423.7 624.42 427.11 638.86 423.49C659.91 418.21 673.48 399.98 669.17 382.78Z" fill="#B1FF05" stroke="black" stroke-linecap="round" stroke-linejoin="round"/>
<path d="M1001.22 281.93L1008.09 288.68L1013.87 275.19" stroke="black" stroke-linecap="round" stroke-linejoin="round"/>
<path d="M636.14 695.62C636.14 695.62 632.98 685.92 642.07 676.22H657.95V694.55L636.15 695.62H636.14Z" fill="black" stroke="black" stroke-linecap="round" stroke-linejoin="round"/>
<path d="M657.94 731.98C657.94 731.98 654.57 751.73 670.46 768.08L680.54 708.2L657.94 731.98Z" fill="black" stroke="black" stroke-linecap="round" stroke-linejoin="round"/>
<path d="M637.097 416.522C658.15 411.241 671.719 393.017 667.405 375.816C663.09 358.615 642.527 348.951 621.474 354.231C600.421 359.511 586.852 377.736 591.166 394.937C595.48 412.138 616.044 421.802 637.097 416.522Z" fill="#E9FF99" stroke="black" stroke-linecap="round" stroke-linejoin="round"/>
<path d="M635.348 409.548C651.687 405.45 662.218 391.306 658.869 377.956C655.521 364.607 639.562 357.107 623.223 361.205C606.885 365.303 596.354 379.447 599.702 392.796C603.05 406.146 619.01 413.646 635.348 409.548Z" fill="#B1FF05" stroke="black" stroke-linecap="round" stroke-linejoin="round"/>
<path d="M638.86 423.48L637.11 416.51" stroke="black" stroke-linecap="round" stroke-linejoin="round"/>
<path d="M651.79 418.12L650.04 411.15" stroke="black" stroke-linecap="round" stroke-linejoin="round"/>
<path d="M663.46 407.78L661.72 400.81" stroke="black" stroke-linecap="round" stroke-linejoin="round"/>
<path d="M624.93 424.86L623.19 417.89" stroke="black" stroke-linecap="round" stroke-linejoin="round"/>
<path d="M609.76 421.25L608.01 414.28" stroke="black" stroke-linecap="round" stroke-linejoin="round"/>
<path d="M652.92 383.33C635.81 378.65 617.31 391.84 611.58 412.77C610.13 418.08 609.64 423.38 610 428.41L630.58 458.65C631.11 458.83 631.64 459 632.19 459.15C649.3 463.83 667.8 450.64 673.53 429.71C679.25 408.77 670.02 388.01 652.92 383.34V383.33Z" fill="#B1FF05" stroke="black" stroke-linecap="round" stroke-linejoin="round"/>
<path d="M645.99 381.43C628.88 376.75 610.38 389.94 604.65 410.87C603.96 413.41 603.49 415.94 603.22 418.44L630.22 458.1C645.81 459.31 661.43 446.72 666.6 427.8C672.32 406.86 663.09 386.1 645.99 381.43Z" fill="#E9FF99" stroke="black" stroke-linecap="round" stroke-linejoin="round"/>
<path d="M669.45 394.54L667.7 387.57" stroke="black" stroke-linecap="round" stroke-linejoin="round"/>
<path d="M600.79 414.86L598.18 407.39" stroke="black" stroke-linecap="round" stroke-linejoin="round"/>
<path d="M673.54 429.7L666.6 427.81" stroke="black" stroke-linecap="round" stroke-linejoin="round"/>
<path d="M667.91 442.51L660.97 440.62" stroke="black" stroke-linecap="round" stroke-linejoin="round"/>
<path d="M643.67 389.92C630.39 386.29 616.03 396.52 611.59 412.77C609.95 418.76 609.9 424.73 611.14 430.07L622.32 446.49C623.95 447.48 625.71 448.25 627.6 448.77C640.88 452.4 655.24 442.17 659.68 425.92C664.12 409.67 656.96 393.55 643.68 389.93L643.67 389.92Z" fill="#B1FF05" stroke="black" stroke-linecap="round" stroke-linejoin="round"/>
<path d="M657.32 453.97L650.39 452.07" stroke="black" stroke-linecap="round" stroke-linejoin="round"/>
<path d="M675.21 415.81L668.27 413.91" stroke="black" stroke-linecap="round" stroke-linejoin="round"/>
<path d="M671.92 400.56L664.99 398.66" stroke="black" stroke-linecap="round" stroke-linejoin="round"/>
<path d="M650.72 470.42H709.71C711.71 463.97 712.27 456.67 710.98 449.16C707.32 427.77 690.18 412.85 672.7 415.84C655.22 418.83 644.02 438.6 647.68 459.99C648.31 463.68 649.35 467.17 650.72 470.42Z" fill="#B1FF05" stroke="black" stroke-linecap="round" stroke-linejoin="round"/>
<path d="M643.96 459.67L637.02 457.78" stroke="black" stroke-linecap="round" stroke-linejoin="round"/>
<path d="M663.31 388.85L656.38 386.96" stroke="black" stroke-linecap="round" stroke-linejoin="round"/>
<path d="M647.68 459.99L654.77 458.78" stroke="black" stroke-linecap="round" stroke-linejoin="round"/>
<path d="M658.33 470.42H716.4C718.73 463.68 719.43 455.93 718.06 447.95C714.4 426.56 697.26 411.64 679.78 414.63C662.3 417.62 651.1 437.39 654.76 458.78C655.47 462.93 656.69 466.84 658.33 470.42Z" fill="#E9FF99" stroke="black" stroke-linecap="round" stroke-linejoin="round"/>
<path d="M716.61 414.42H773.87C779.4 409.42 782.98 402.88 783.56 395.53C784.95 377.85 768.54 362.14 746.91 360.43C725.27 358.72 706.6 371.67 705.21 389.35C704.46 398.92 708.93 407.91 716.61 414.42Z" fill="#A6FFEC" stroke="black" stroke-linecap="round" stroke-linejoin="round"/>
<path d="M729.49 414.42H762.66C774.64 409.76 783.2 400.11 784.13 388.36C785.52 370.68 769.11 354.97 747.48 353.26C725.84 351.55 707.17 364.5 705.78 382.18C704.68 396.11 714.64 408.82 729.5 414.41L729.49 414.42Z" fill="#E3FCF7" stroke="black" stroke-linecap="round" stroke-linejoin="round"/>
<path d="M647.37 446L654.46 444.79" stroke="black" stroke-linecap="round" stroke-linejoin="round"/>
<path d="M652.12 431.15L659.21 429.94" stroke="black" stroke-linecap="round" stroke-linejoin="round"/>
<path d="M661.83 420.33L668.91 419.12" stroke="black" stroke-linecap="round" stroke-linejoin="round"/>
<path d="M775.377 387.694C776.459 373.973 763.723 361.777 746.931 360.452C730.138 359.128 715.648 369.177 714.565 382.897C713.483 396.617 726.219 408.814 743.012 410.138C759.804 411.463 774.294 401.414 775.377 387.694Z" fill="#A6FFEC" stroke="black" stroke-linecap="round" stroke-linejoin="round"/>
<path d="M714.99 413.06L715.56 405.89" stroke="black" stroke-linecap="round" stroke-linejoin="round"/>
<path d="M770.42 414.42L770.75 410.24" stroke="black" stroke-linecap="round" stroke-linejoin="round"/>
<path d="M707.45 393.83L706.89 400.99" stroke="black" stroke-linecap="round" stroke-linejoin="round"/>
<path d="M780.08 406.76L780.65 399.6" stroke="black" stroke-linecap="round" stroke-linejoin="round"/>
<path d="M655.931 646.184C658.67 644.169 662.537 644.752 664.557 647.499L672.359 658.109L662.418 665.419L654.616 654.81C652.601 652.07 653.184 648.204 655.931 646.184Z" fill="#FF9F10" stroke="black" stroke-linecap="round" stroke-linejoin="round"/>
<path d="M658.06 703.79C664.3 712.27 666.88 722.87 665.37 733.29C663.38 747.07 666.03 761.51 673.69 774.1H702.65L783.04 714.99L776.11 705.56C766.12 691.98 751.62 683.68 736.2 681.2C725.8 679.53 716.46 673.91 710.22 665.43C699.63 651.03 679.37 647.94 664.96 658.53C650.56 669.12 647.47 689.38 658.06 703.79Z" fill="#FFE212" stroke="black" stroke-linecap="round" stroke-linejoin="round"/>
<path d="M754.13 687.01C743.01 689.1 724.28 698.71 704.95 712.92C685.62 727.13 670.87 742.15 665.55 752.14C666.79 759.74 669.49 767.2 673.68 774.1H674C672.71 765.82 690.17 745.84 715.47 727.24C741.72 707.94 766.87 697.13 773.34 702.1C767.86 695.66 761.3 690.6 754.12 687L754.13 687.01Z" fill="#FF9F10" stroke="black" stroke-linecap="round" stroke-linejoin="round"/>
<path d="M644.35 733.07C634.37 733.07 626.29 724.2 626.29 713.27C626.29 702.34 634.38 693.47 644.35 693.47H652.03V733.08H644.35V733.07Z" fill="black" stroke="black" stroke-linecap="round" stroke-linejoin="round"/>
<path d="M652.02 733.07C661.994 733.07 670.08 724.205 670.08 713.27C670.08 702.335 661.994 693.47 652.02 693.47C642.046 693.47 633.96 702.335 633.96 713.27C633.96 724.205 642.046 733.07 652.02 733.07Z" fill="#F9EBFF" stroke="black" stroke-linecap="round" stroke-linejoin="round"/>
<path d="M650.32 708.45H646.48L649.17 704.74H654.08V722.43H650.32V708.45Z" fill="black"/>
<path d="M788.56 88.96L808 85.61L807.76 76.6L788.56 88.96Z" fill="black" stroke="black" stroke-linecap="round" stroke-linejoin="round"/>
<path d="M666.65 470.42H708.08C711.11 464.41 712.31 456.92 710.98 449.16C708.14 432.56 694.84 420.98 681.27 423.3C667.7 425.62 659.01 440.96 661.85 457.57C662.67 462.34 664.35 466.69 666.65 470.42Z" fill="#B1FF05" stroke="black" stroke-linecap="round" stroke-linejoin="round"/>
<path d="M727 774.11C731.97 771.01 737.11 767.53 742.3 763.72C769.75 743.54 787.99 721.73 783.05 715C778.11 708.28 751.85 719.19 724.4 739.37C707.78 751.59 694.54 764.41 687.78 774.11H727.01H727Z" fill="black" stroke="black" stroke-linecap="round" stroke-linejoin="round"/>
<path d="M737.34 746.92L729.23 735.89C727.62 737.01 726.01 738.17 724.39 739.36C722.99 740.39 721.61 741.43 720.26 742.47L728.12 753.16C726.23 756.9 726.45 761.54 729.1 765.15C732.86 770.26 740.04 771.36 745.15 767.6C750.26 763.84 751.36 756.66 747.6 751.55C745.14 748.2 741.2 746.59 737.34 746.93V746.92Z" fill="#FF9F10" stroke="black" stroke-linecap="round" stroke-linejoin="round"/>
</g>
<defs>
<clipPath id="clip0_3182_620">
<rect width="1280" height="800" fill="white"/>
</clipPath>
</defs>
</svg>
